<svg width="540" height="92" viewBox="0 0 540 92" fill="none" xmlns="http://www.w3.org/2000/svg">
  <path d="M2 18 L2 70 L14 70 L14 49 L58 49 L58 40 L14 40 L14 27 L62 27 L62 18 Z" fill="#1C3A3C"/>
  <path d="M70 18 L70 70 L138 70 L138 61 L82 61 L82 49 L132 49 L132 40 L82 40 L82 27 L138 27 L138 18 Z" fill="#1C3A3C"/>
  <path d="M146 18 L146 70 L214 70 L214 61 L158 61 L158 49 L208 49 L208 40 L158 40 L158 27 L214 27 L214 18 Z" fill="#1C3A3C"/>
  <path d="M222 8  L246 8  L352 72 L352 80 L328 80 L222 16 Z" fill="#00C2A8"/>
  <path d="M328 8  L352 8  L352 16 L246 80 L222 80 L222 72 Z" fill="#00C2A8"/>
  <path d="M222 8  L210 -1 L228 7  Z" fill="#00C2A8"/>
  <path d="M352 8  L364 -1 L346 7  Z" fill="#00C2A8"/>
  <path d="M222 80 L210 89 L228 81 Z" fill="#00C2A8"/>
  <path d="M352 80 L364 89 L346 81 Z" fill="#00C2A8"/>
  <polygon points="284,34 287,22 290,34 287,32" fill="white" opacity="0.97"/>
  <polygon points="284,54 287,66 290,54 287,56" fill="white" opacity="0.97"/>
  <polygon points="276,41 264,44 276,47 274,44" fill="white" opacity="0.97"/>
  <polygon points="298,41 310,44 298,47 300,44" fill="white" opacity="0.97"/>
  <line x1="280" y1="36" x2="274" y2="30" stroke="white" stroke-width="1.5" stroke-linecap="square" opacity="0.65"/>
  <line x1="294" y1="36" x2="300" y2="30" stroke="white" stroke-width="1.5" stroke-linecap="square" opacity="0.65"/>
  <line x1="280" y1="52" x2="274" y2="58" stroke="white" stroke-width="1.5" stroke-linecap="square" opacity="0.65"/>
  <line x1="294" y1="52" x2="300" y2="58" stroke="white" stroke-width="1.5" stroke-linecap="square" opacity="0.65"/>
  <circle cx="287" cy="44" r="3.2" fill="white"/>
  <rect x="362" y="18" width="14" height="52" fill="#009E88"/>
  <ellipse cx="454" cy="44" rx="72" ry="28" fill="none" stroke="#009E88" stroke-width="11"/>
  <path d="M454 22 A24 20 0 1 1 431 52" fill="none" stroke="#1C3A3C" stroke-width="5" stroke-linecap="square" opacity="0.28"/>
  <path d="M431 52 A12 10 0 0 1 454 34" fill="none" stroke="#1C3A3C" stroke-width="3" stroke-linecap="square" opacity="0.16"/>
</svg>
