<svg width="1200" height="630" viewBox="0 0 1200 630" fill="none" xmlns="http://www.w3.org/2000/svg">
  <!-- Background -->
  <rect width="1200" height="630" fill="#0D0F14"/>
  <!-- Subtle grid -->
  <line x1="0" y1="315" x2="1200" y2="315" stroke="#252A35" stroke-width="1"/>
  <line x1="600" y1="0" x2="600" y2="630" stroke="#252A35" stroke-width="1"/>
  <!-- Glow -->
  <ellipse cx="600" cy="250" rx="500" ry="200" fill="#00C2A8" opacity="0.05"/>

  <!-- Logo FEEXIO — centered, large -->
  <!-- F -->
  <path d="M172 215h72v18H208v30h48v18H208v66H172V215Z" fill="#EEF0F5"/>
  <!-- E1 -->
  <path d="M264 215h72v18H300v30h48v18H300v48h54v18H264V215Z" fill="#EEF0F5"/>
  <!-- E2 -->
  <path d="M360 215h72v18H396v30h48v18H396v48h54v18H360V215Z" fill="#EEF0F5"/>
  <!-- X -->
  <path d="M456 220L540 412" stroke="#00C2A8" stroke-width="28" stroke-linecap="round"/>
  <path d="M540 220L456 412" stroke="#00C2A8" stroke-width="28" stroke-linecap="round"/>
  <path d="M456 220L432 196" stroke="#00C2A8" stroke-width="14" stroke-linecap="round"/>
  <path d="M540 220L564 196" stroke="#00C2A8" stroke-width="14" stroke-linecap="round"/>
  <path d="M456 412L432 436" stroke="#00C2A8" stroke-width="14" stroke-linecap="round"/>
  <path d="M540 412L564 436" stroke="#00C2A8" stroke-width="14" stroke-linecap="round"/>
  <circle cx="498" cy="316" r="14" fill="#0D0F14"/>
  <circle cx="498" cy="316" r="8"  fill="#00C2A8"/>
  <line x1="498" y1="284" x2="498" y2="278" stroke="#0D0F14" stroke-width="6" stroke-linecap="round"/>
  <line x1="498" y1="348" x2="498" y2="354" stroke="#0D0F14" stroke-width="6" stroke-linecap="round"/>
  <line x1="466" y1="316" x2="460" y2="316" stroke="#0D0F14" stroke-width="6" stroke-linecap="round"/>
  <line x1="530" y1="316" x2="536" y2="316" stroke="#0D0F14" stroke-width="6" stroke-linecap="round"/>
  <!-- I -->
  <rect x="578" y="215" width="22" height="132" rx="11" fill="#00C2A8"/>
  <!-- O -->
  <circle cx="680" cy="281" r="66" fill="none" stroke="#00C2A8" stroke-width="22"/>
  <path d="M680 233 A48 48 0 1 1 633 307" fill="none" stroke="#EEF0F5" stroke-width="16" stroke-linecap="round"/>
  <path d="M633 307 A24 24 0 0 1 680 257" fill="none" stroke="#EEF0F5" stroke-width="10" stroke-linecap="round" opacity="0.6"/>

  <!-- Tagline -->
  <text x="600" y="490" text-anchor="middle"
        font-family="-apple-system, BlinkMacSystemFont, 'Segoe UI', sans-serif"
        font-size="28" font-weight="400" fill="#8B95A8" letter-spacing="1">
    Calculate Fees, Profit &amp; Rates Instantly
  </text>
  <!-- URL -->
  <text x="600" y="540" text-anchor="middle"
        font-family="-apple-system, BlinkMacSystemFont, 'Segoe UI', sans-serif"
        font-size="18" font-weight="400" fill="#4A5568" letter-spacing="2">
    feexio.com
  </text>
</svg>
